#!OML:ASF F:\VICON\USERDATA\INSTALL\rory3\rory3.ASF
:FULLY-SPECIFIED
:DEGREES
161
root -6.84291 14.1328 -1.55421 12.0351 -3.81878 -1.35661
lowerback 32.0967 -0.183144 1.82496
upperback 7.29849 0.765609 4.16783
thorax -8.57386 0.293125 3.15079
lowerneck -14.9437 11.4165 -2.39618
upperneck 6.40826 17.2445 -12.7497
head 5.33153 7.61528 -1.95321
rclavicle 2.38542e-015 -1.98785e-014
rhumerus -32.0806 -30.7368 -58.7256
rradius 61.0425
rwrist 13.7054
rhand -37.6487 -16.2481
rfingers 7.12502
rthumb -10.7004 -45.9556
lclavicle 2.38542e-015 -1.98785e-014
lhumerus 12.1024 21.0313 66.2973
lradius 59.6761
lwrist -13.2106
lhand -30.66 41.5634
lfingers 7.12502
lthumb -3.95478 71.5064
rfemur -35.1504 -3.82836 7.81252
rtibia 90.9997
rfoot -29.4867 16.5474
rtoes -6.15241
lfemur -75.9491 6.22307 -18.3966
ltibia 87.2674
lfoot -11.1369 -11.893
ltoes -24.7322
162
root -6.8081 14.1393 -1.48948 12.3142 -3.93429 -1.55032
lowerback 31.5478 -0.21669 1.92792
upperback 7.64785 0.738275 4.09703
thorax -8.63622 0.308053 3.25752
lowerneck -14.9172 11.3801 -2.32288
upperneck 6.44812 17.1866 -12.7656
head 5.34443 7.58509 -1.97432
rclavicle -2.06736e-014 1.03368e-014
rhumerus -31.8798 -30.9211 -58.8715
rradius 60.8133
rwrist 13.9367
rhand -37.8715 -13.7452
rfingers 7.12502
rthumb -10.9153 -43.4414
lclavicle -2.06736e-014 1.03368e-014
lhumerus 11.9954 21.1673 66.2531
lradius 59.5499
lwrist -13.0877
lhand -30.8965 42.0754
lfingers 7.12502
lthumb -4.18318 72.0141
rfemur -34.9145 -3.73261 7.873
rtibia 90.474
rfoot -29.4955 16.3561
rtoes -7.22823
lfemur -75.8962 6.24884 -18.4666
ltibia 87.3212
lfoot -11.7324 -11.2999
ltoes -23.6138
163
root -6.76989 14.1513 -1.42565 12.4723 -4.13707 -1.85544
lowerback 31.3766 -0.231091 2.12791
upperback 7.62536 0.780788 4.16949
thorax -8.5813 0.324071 3.2054
lowerneck -14.6069 11.4121 -2.12912
upperneck 6.25021 17.1782 -13.0101
head 5.27149 7.59744 -2.09483
rclavicle -3.97569e-014 -3.73715e-014
rhumerus -31.7014 -31.1739 -58.9117
rradius 60.5445
rwrist 14.2938
rhand -37.6661 -15.241
rfingers 7.12502
rthumb -10.7172 -44.9476
lclavicle -3.97569e-014 -3.73715e-014
lhumerus 11.8827 21.2859 66.2198
lradius 59.4587
lwrist -12.9763
lhand -31.2211 42.1341
lfingers 7.12502
lthumb -4.49664 72.0664
rfemur -34.4231 -3.4549 7.97729
rtibia 89.9365
rfoot -29.9141 15.688
rtoes -10.0507
lfemur -75.73 6.34459 -18.4284
ltibia 87.4083
lfoot -12.1883 -10.7067
ltoes -22.496
164
root -6.73113 14.1796 -1.36197 12.4602 -4.19105 -1.99673
lowerback 31.4378 -0.319479 2.27561
upperback 7.64089 0.717804 4.18566
thorax -8.58768 0.291738 3.1626
lowerneck -14.5744 11.4691 -2.00215
upperneck 6.03499 17.2194 -13.1599
head 5.22623 7.6282 -2.15881
rclavicle -1.59028e-015 1.51076e-014
rhumerus -31.7343 -31.1375 -58.9274
rradius 60.681
rwrist 14.323
rhand -36.9926 -17.7941
rfingers 7.12502
rthumb -10.0675 -47.5333
lclavicle -1.59028e-015 1.51076e-014
lhumerus 11.6917 21.4816 66.2365
lradius 59.5556
lwrist -13.034
lhand -30.4889 38.8567
lfingers 7.12502
lthumb -3.78959 68.8028
rfemur -34.2702 -3.34008 8.06466
rtibia 89.3167
rfoot -28.9913 16.4633
rtoes -8.32067
lfemur -75.2814 6.2763 -18.5405
ltibia 87.4292
lfoot -12.7192 -10.1112
ltoes -22.6575
165
root -6.70177 14.1932 -1.30218 12.5113 -4.20454 -2.15844
lowerback 31.4912 -0.357422 2.34171
upperback 7.60219 0.70194 4.25217
thorax -8.6566 0.283334 3.20813
lowerneck -14.6716 11.4754 -1.89253
upperneck 6.03351 17.2214 -13.2194
head 5.25684 7.62316 -2.18531
rclavicle -1.11319e-014 -5.56597e-015
rhumerus -31.8175 -30.8821 -59.0124
rradius 60.9888
rwrist 14.0697
rhand -36.9907 -19.357
rfingers 7.12502
rthumb -10.0657 -49.0963
lclavicle -1.11319e-014 -5.56597e-015
lhumerus 11.4702 21.6193 66.2832
lradius 59.6845
lwrist -13.1539
lhand -31.254 44.9814
lfingers 7.12502
lthumb -4.52839 74.913
rfemur -33.5382 -3.15529 8.07496
rtibia 88.811
rfoot -29.3865 16.1658
rtoes -8.47692
lfemur -75.0462 6.22672 -18.5782
ltibia 87.5367
lfoot -13.1791 -9.54184
ltoes -23.634
166
root -6.67544 14.2086 -1.24242 12.6927 -4.29567 -2.61267
lowerback 31.4047 -0.377773 2.54844
upperback 7.53494 0.755851 4.41776
thorax -8.69449 0.30506 3.25696
lowerneck -14.5631 11.4498 -1.92329
upperneck 5.93964 17.1677 -13.1898
head 5.20095 7.60949 -2.1872
rclavicle -1.35174e-014 4.13472e-014
rhumerus -31.8524 -30.5656 -59.1414
rradius 61.2808
rwrist 13.9396
rhand -37.8862 -14.5737
rfingers 7.12502
rthumb -10.9295 -44.2693
lclavicle -1.35174e-014 4.13472e-014
lhumerus 11.0838 21.5668 66.1598
lradius 59.9659
lwrist -12.812
lhand -31.0061 43.2186
lfingers 7.12502
lthumb -4.28901 73.1552
rfemur -33.4102 -2.83762 8.50198
rtibia 88.378
rfoot -28.9565 16.4881
rtoes -7.39242
lfemur -75.007 6.38157 -18.2947
ltibia 87.7036
lfoot -13.4425 -9.2297
ltoes -24.2395
167
root -6.64864 14.2077 -1.17951 12.8326 -4.37759 -2.89229
lowerback 31.2086 -0.415865 2.65821
upperback 7.56215 0.738069 4.50922
thorax -8.5692 0.294525 3.30006
lowerneck -14.6766 11.4584 -1.98539
upperneck 5.89 17.18 -13.1108
head 5.19131 7.6178 -2.14991
rclavicle -1.90833e-014 -2.38542e-014
rhumerus -31.7305 -30.6208 -59.2147
rradius 61.2847
rwrist 14.1274
rhand -37.7598 -15.5753
rfingers 7.12502
rthumb -10.8075 -45.2773
lclavicle -1.90833e-014 -2.38542e-014
lhumerus 10.8531 21.5699 66.0871
lradius 60.2599
lwrist -12.5492
lhand -31.7845 48.8797
lfingers 7.12502
lthumb -5.04068 78.7998
rfemur -32.8327 -2.85256 8.79645
rtibia 88.0882
rfoot -30.8082 13.0774
rtoes -18.1684
lfemur -75.0706 6.47581 -18.1798
ltibia 88.0248
lfoot -13.624 -8.96198
ltoes -24.4555
